<svg xmlns="http://www.w3.org/2000/svg"><symbol id="logo-16" viewBox="0 0 15.2 16"><style>.st0{fill:#92c0d6}.st1{fill:#9ccfe7}.st2{fill:#231f20}.st3{fill:#cadede}.st4{fill:#82cfcf}</style><path d="M10.8 7.1l.3.6 1.1-.3.3-.6h.2l2.1-2 .4-2.3-.3-.7z" class="st0"/><path d="M9.7 1.5l1.5-.6.7-.4 2.4-.3.3.8.3.8v1l-.4 1.1-.7 1.3-3 1.9z" class="st1"/><path d="M8.2 1.8l-.2.3v.3l-.8.6.8-.3h.4l.4-.3v-.2z" class="st2"/><path d="M0 16l2.2-2.2-.4-2.2 9-4.5.3.6.4 8.3z" class="st3"/><path d="M1.5 6.5l-.2.9.2 2.1-.3 1.4.6.7 2.1 2.2 2.1.6 2-1 .4-1.6 2.4-4.7-1.1-5.6-.6-.3-.3-.5L7.7.6l-2.6.6-1.9 1.4-1.6 2.1z" class="st4"/><path d="M8.2 1.8l-.2.3v.3l-.8.6.8-.3h.4l.4-.3v-.2zm6.4-.8l-.4-.9-.6-.1-.9.4v.8h1z" class="st2"/></symbol><symbol id="logo-32" viewBox="0 0 30.5 32"><style>.st0{fill:#92c0d6}.st1{fill:#9ccfe7}.st2{fill:#231f20}.st3{fill:#cadede}.st4{fill:#82cfcf}</style><path d="M21.5 14.2l.7 1.2 2.2-.6.7-1.2h.4l4.1-4.1.9-4.6-.6-1.2z" class="st0"/><path d="M19.3 2.9l3-1.1 1.5-.8 4.8-.6.6 1.7.7 1.6-.1 1.8-.8 2.3-1.4 2.5-6.1 3.9z" class="st1"/><path d="M16.4 3.7l-.4.5v.6l-1.6 1.3 1.6-.7.8-.1.8-.4v-.6z" class="st2"/><path d="M0 32l4.4-4.5-.8-4.3 17.9-9 .7 1.2L23 32z" class="st3"/><path d="M3.1 13.1l-.6 1.6.4 4.2-.5 2.8 1.2 1.5 4.1 4.4 4.3 1.1 4-1.9.7-3.1 4.8-9.5-2.2-11.3-1.1-.5-.5-1-2.3-.3-5.1 1.4-3.9 2.7-3.2 4.2z" class="st4"/><path d="M16.4 3.7l-.4.5v.6l-1.6 1.3 1.6-.7.8-.1.8-.4v-.6zm12.8-1.6l-.7-2-1.3-.1-1.8.8.1 1.6 1.9.1z" class="st2"/></symbol><symbol id="logo-64" viewBox="0 0 61 64"><style>.st0{fill:#92c0d6}.st1{fill:#9ccfe7}.st2{fill:#231f20}.st3{fill:#cadede}.st4{fill:#82cfcf}</style><path d="M43.1 28.3l1.4 2.6 4.3-1.2 1.3-2.5.9-.1 8.2-8.1L61 9.9l-1.3-2.5z" class="st0"/><path d="M38.7 5.8l6-2.1 2.8-1.8L57.1.8l1.2 3.3 1.4 3.3-.1 3.7-1.6 4.5-2.8 5-12.1 7.7z" class="st1"/><path d="M32.9 7.4l-.8.9-.1 1.2-3.1 2.6 3.1-1.4h1.7l1.6-.9V8.7z" class="st2"/><path d="M0 64l8.8-9-1.6-8.5 35.9-18.2 1.4 2.6L46.1 64z" class="st3"/><path d="M6.2 26.1L5 29.4l.8 8.4-.9 5.7 2.3 2.9 8.3 8.9 8.5 2.1 7.9-3.8 1.5-6.3 9.7-19-4.4-22.5-2.2-1-1.1-1.9-4.6-.6L20.5 5l-7.7 5.5-6.4 8.3z" class="st4"/><path d="M32.9 7.4l-.8.9-.1 1.2-3.1 2.6 3.1-1.4h1.7l1.6-.9V8.7zm25.4-3.3L56.9.3 54.3 0l-3.5 1.5.2 3.3 3.7.1z" class="st2"/></symbol><symbol id="logo-256" viewBox="0 0 157.6 165.4"><style>.st0{fill:#92c0d6}.st1{fill:#9ccfe7}.st2{fill:#231f20}.st3{fill:#cadede}.st4{fill:#82cfcf}</style><path d="M111.3 73.2l3.7 6.6 11-3.1 3.5-6.3 2.3-.3 21.2-21 4.6-23.6-3.3-6.4z" class="st0"/><path d="M100 15l15.5-5.5 7.3-4.5 24.8-3 3.1 8.7 3.6 8.4-.2 9.6-4.1 11.7-7.4 12.8-31.3 20z" class="st1"/><path d="M84.9 19.1l-2 2.5-.3 3-7.9 6.7 7.9-3.6 4.5-.1 4.1-2.4v-2.8z" class="st2"/><path d="M0 165.4l22.7-23.2-4.1-22.2 92.7-46.8 3.7 6.6 4.1 85.6z" class="st3"/><path d="M16 67.5L13 76l2 21.7-2.4 14.6 6 7.7L40 142.9l22 5.5 20.5-9.9 3.9-16.2 24.9-49.1L100 15l-5.7-2.6-2.9-4.9-11.9-1.6L53 12.8 33 27 16.4 48.7z" class="st4"/><path d="M84.9 19.1l-2 2.5-.3 3-7.9 6.7 7.9-3.6 4.5-.1 4.1-2.4v-2.8zm65.8-8.4l-3.6-10-6.7-.7-9.1 4 .5 8.5 9.6.3z" class="st2"/></symbol></svg>