<svg xmlns="http://www.w3.org/2000/svg" id="Layer_1" viewBox="0 0 157.6 165.4"><style>.st0{fill:#92c0d6}.st1{fill:#9ccfe7}.st2{fill:#231f20}.st3{fill:#cadede}.st4{fill:#82cfcf}</style><path d="M111.3 73.2l3.7 6.6 11-3.1 3.5-6.3 2.3-.3 21.2-21 4.6-23.6-3.3-6.4z" class="st0"/><path d="M100 15l15.5-5.5 7.3-4.5 24.8-3 3.1 8.7 3.6 8.4-.2 9.6-4.1 11.7-7.4 12.8-31.3 20z" class="st1"/><path d="M84.9 19.1l-2 2.5-.3 3-7.9 6.7 7.9-3.6 4.5-.1 4.1-2.4v-2.8z" class="st2"/><path d="M0 165.4l22.7-23.2-4.1-22.2 92.7-46.8 3.7 6.6 4.1 85.6z" class="st3"/><path d="M16 67.5L13 76l2 21.7-2.4 14.6 6 7.7L40 142.9l22 5.5 20.5-9.9 3.9-16.2 24.9-49.1L100 15l-5.7-2.6-2.9-4.9-11.9-1.6L53 12.8 33 27 16.4 48.7z" class="st4"/><path d="M84.9 19.1l-2 2.5-.3 3-7.9 6.7 7.9-3.6 4.5-.1 4.1-2.4v-2.8zm65.8-8.4l-3.6-10-6.7-.7-9.1 4 .5 8.5 9.6.3z" class="st2"/></svg>