<svg xmlns="http://www.w3.org/2000/svg" id="Layer_1" width="61" height="64" viewBox="0 0 61 64"><style>.st0{fill:#92c0d6}.st1{fill:#9ccfe7}.st2{fill:#231f20}.st3{fill:#cadede}.st4{fill:#82cfcf}</style><path d="M43.1 28.3l1.4 2.6 4.3-1.2 1.3-2.5.9-.1 8.2-8.1L61 9.9l-1.3-2.5z" class="st0"/><path d="M38.7 5.8l6-2.1 2.8-1.8L57.1.8l1.2 3.3 1.4 3.3-.1 3.7-1.6 4.5-2.8 5-12.1 7.7z" class="st1"/><path d="M32.9 7.4l-.8.9-.1 1.2-3.1 2.6 3.1-1.4h1.7l1.6-.9V8.7z" class="st2"/><path d="M0 64l8.8-9-1.6-8.5 35.9-18.2 1.4 2.6L46.1 64z" class="st3"/><path d="M6.2 26.1L5 29.4l.8 8.4-.9 5.7 2.3 2.9 8.3 8.9 8.5 2.1 7.9-3.8 1.5-6.3 9.7-19-4.4-22.5-2.2-1-1.1-1.9-4.6-.6L20.5 5l-7.7 5.5-6.4 8.3z" class="st4"/><path d="M32.9 7.4l-.8.9-.1 1.2-3.1 2.6 3.1-1.4h1.7l1.6-.9V8.7zm25.4-3.3L56.9.3 54.3 0l-3.5 1.5.2 3.3 3.7.1z" class="st2"/></svg>