<svg xmlns="http://www.w3.org/2000/svg" id="Layer_1" viewBox="0 0 15.2 16"><style>.st0{fill:#92c0d6}.st1{fill:#9ccfe7}.st2{fill:#231f20}.st3{fill:#cadede}.st4{fill:#82cfcf}</style><path d="M10.8 7.1l.3.6 1.1-.3.3-.6h.2l2.1-2 .4-2.3-.3-.7z" class="st0"/><path d="M9.7 1.5l1.5-.6.7-.4 2.4-.3.3.8.3.8v1l-.4 1.1-.7 1.3-3 1.9z" class="st1"/><path d="M8.2 1.8l-.2.3v.3l-.8.6.8-.3h.4l.4-.3v-.2z" class="st2"/><path d="M0 16l2.2-2.2-.4-2.2 9-4.5.3.6.4 8.3z" class="st3"/><path d="M1.5 6.5l-.2.9.2 2.1-.3 1.4.6.7 2.1 2.2 2.1.6 2-1 .4-1.6 2.4-4.7-1.1-5.6-.6-.3-.3-.5L7.7.6l-2.6.6-1.9 1.4-1.6 2.1z" class="st4"/><path d="M8.2 1.8l-.2.3v.3l-.8.6.8-.3h.4l.4-.3v-.2zm6.4-.8l-.4-.9-.6-.1-.9.4v.8h1z" class="st2"/></svg>