<svg xmlns="http://www.w3.org/2000/svg" id="Layer_1" viewBox="0 0 30.5 32"><style>.st0{fill:#92c0d6}.st1{fill:#9ccfe7}.st2{fill:#231f20}.st3{fill:#cadede}.st4{fill:#82cfcf}</style><path d="M21.5 14.2l.7 1.2 2.2-.6.7-1.2h.4l4.1-4.1.9-4.6-.6-1.2z" class="st0"/><path d="M19.3 2.9l3-1.1 1.5-.8 4.8-.6.6 1.7.7 1.6-.1 1.8-.8 2.3-1.4 2.5-6.1 3.9z" class="st1"/><path d="M16.4 3.7l-.4.5v.6l-1.6 1.3 1.6-.7.8-.1.8-.4v-.6z" class="st2"/><path d="M0 32l4.4-4.5-.8-4.3 17.9-9 .7 1.2L23 32z" class="st3"/><path d="M3.1 13.1l-.6 1.6.4 4.2-.5 2.8 1.2 1.5 4.1 4.4 4.3 1.1 4-1.9.7-3.1 4.8-9.5-2.2-11.3-1.1-.5-.5-1-2.3-.3-5.1 1.4-3.9 2.7-3.2 4.2z" class="st4"/><path d="M16.4 3.7l-.4.5v.6l-1.6 1.3 1.6-.7.8-.1.8-.4v-.6zm12.8-1.6l-.7-2-1.3-.1-1.8.8.1 1.6 1.9.1z" class="st2"/></svg>