<svg xmlns="http://www.w3.org/2000/svg"><symbol id="facebook" viewBox="0 0 69.3 69.4"><path fill="#111820" d="M34.7.1a34.7 34.7 0 1 0 34.6 34.6A34.7 34.7 0 0 0 34.7.1zm9.5 22.7h-4.3s-1.8-.2-1.9 1.4 0 4.4 0 4.4h6.1l-.7 6.5H38V54h-7.7V35.1h-3.8v-6.5h3.8v-6.4s.6-6.4 6.5-6.4h7.3z"/></symbol><symbol id="twitter" viewBox="0 0 69.3 69.4"><path fill="#111820" d="M34.3.1A34.7 34.7 0 1 0 69 34.7 34.7 34.7 0 0 0 34.3.1zm15.5 26.4s0 12.1-8.2 18.9c0 0-12.6 10.9-27.3 1.5 0 0 4.9 1.6 11.8-3.2a8.6 8.6 0 0 1-7.4-5.7 7 7 0 0 0 3.5-.3s-6.3-1.4-6.5-8a7 7 0 0 0 3.6 1S13.4 26.1 17 20c0 0 7.4 8.6 16.5 8.2 0 0-.8-6.6 4.5-9s9.6 1.8 9.6 1.8 4.5-1.1 5-1.8-.9 3.5-3.4 4.4c0 0 3.4-.5 4.6-1.3s-2.5 3.8-4 4.2z"/></symbol><symbol id="instagram" viewBox="0 0 69.3 69.4"><path fill="#111820" d="M34.2 0a34.7 34.7 0 1 0 34.6 34.7A34.7 34.7 0 0 0 34.2 0zM55 47.9s-1.1 6.9-7 7.4H20.6c-5.9-.5-7-7.4-7-7.4V21.3s1.1-6.9 7-7.4H48c5.9.5 7 7.4 7 7.4z"/><path fill="#111820" d="M43.1 18.7h7.1v7.17h-7.1z"/><circle cx="34.2" cy="34.7" r="7.3" fill="#111820"/><path fill="#111820" d="M45.8 35a11.6 11.6 0 0 1-11.6 11c-9.2.3-11.1-9.4-11.1-11.4a9.2 9.2 0 0 1 1.2-4H18v17.8s.4 2.7 2.8 2.7h27.7s2.4-1.5 2.4-2.9V30.6H45a9.4 9.4 0 0 1 .8 4.4z"/></symbol></svg>